<?xml version="1.0" encoding="iso-8859-1"?>
<!-- Generator: Adobe Illustrator 19.0.0, SVG Export Plug-In . SVG Version: 6.00 Build 0)  -->
<svg version="1.1" id="Capa_1" xmlns="http://www.w3.org/2000/svg" xmlns:xlink="http://www.w3.org/1999/xlink" x="0px" y="0px"
	 viewBox="0 0 512 512" style="enable-background:new 0 0 512 512;" xml:space="preserve">
<path style="fill:#417A47;" d="M366,460v22l-7.721,23.162c-1.361,4.083-5.183,6.838-9.487,6.838H163.207
	c-4.304,0-8.126-2.754-9.487-6.838L146,482v-22H366z"/>
<path style="fill:#77BD63;" d="M380.459,123.554C387.367,135.642,391,149.323,391,163.245V452c0,16.569-13.431,30-30,30H151
	c-16.569,0-30-13.431-30-30V163.245c0-13.922,3.633-27.603,10.541-39.691L167,61.5l176-3.75L380.459,123.554z"/>
<path style="fill:#5E9F51;" d="M189.293,482H151c-16.569,0-30-13.432-30-30V163.245c0-13.922,3.633-27.603,10.541-39.691L167,61.5
	l176-3.75l6.029,10.591l-144.113,3.071l-34.624,60.591C163.548,143.806,160,157.164,160,170.759v281.948
	C160,468.885,173.115,482,189.293,482z"/>
<path style="fill:#FFC261;" d="M298.049,308.066c-29.289,29.289-76.777,29.289-106.066,0L298.049,202
	C327.339,231.289,327.339,278.777,298.049,308.066z"/>
<path style="fill:#FFDB8B;" d="M317.149,275.564c-3.375,11.9-9.732,23.133-19.1,32.501c-9.369,9.369-20.603,15.726-32.505,19.101
	l-21.963-70.698l2.694-2.694L317.149,275.564z"/>
<path style="fill:#B5EC93;" d="M190,212c-11.046,0-20-8.954-20-20s8.954-20,20-20s20,8.954,20,20S201.046,212,190,212z M330,352
	c-11.046,0-20,8.954-20,20s8.954,20,20,20s20-8.954,20-20S341.046,352,330,352z M320,132c0-16.568-13.431-30-30-30s-30,13.432-30,30
	s13.431,30,30,30S320,148.568,320,132z M210,382c-16.569,0-30,13.432-30,30s13.431,30,30,30s30-13.432,30-30S226.569,382,210,382z"
	/>
<path style="fill:#9D9F9C;" d="M326,12l-30,40c-1.474,1.965-3.726,3-6.006,3c-1.565,0-3.145-0.488-4.494-1.5
	c-3.313-2.485-3.985-7.187-1.5-10.5l30-40c2.485-3.313,7.184-3.985,10.5-1.5C327.813,3.986,328.485,8.687,326,12z"/>
<path style="fill:#C7CCD1;" d="M152.581,52.257L152.581,52.257C154.623,46.131,160.355,42,166.811,42h178.377
	c6.456,0,12.189,4.131,14.23,10.257l0,0C362.656,61.969,355.427,72,345.189,72H166.811C156.573,72,149.343,61.969,152.581,52.257z"
	/>
<g>
</g>
<g>
</g>
<g>
</g>
<g>
</g>
<g>
</g>
<g>
</g>
<g>
</g>
<g>
</g>
<g>
</g>
<g>
</g>
<g>
</g>
<g>
</g>
<g>
</g>
<g>
</g>
<g>
</g>
</svg>
