<?xml version="1.0" encoding="iso-8859-1"?>
<!-- Generator: Adobe Illustrator 19.0.0, SVG Export Plug-In . SVG Version: 6.00 Build 0)  -->
<svg version="1.1" id="Capa_1" xmlns="http://www.w3.org/2000/svg" xmlns:xlink="http://www.w3.org/1999/xlink" x="0px" y="0px"
	 viewBox="0 0 512 512" style="enable-background:new 0 0 512 512;" xml:space="preserve">
<path style="fill:#DFDEE0;" d="M406.967,437.98c-3.143-4.891-8.489-7.812-14.303-7.812H119.337c-5.813,0-11.159,2.919-14.301,7.809
	c-3.143,4.89-3.577,10.966-1.163,16.254l0.46,1.008L141.189,512h229.623l36.855-56.759l0.46-1.006
	C410.543,448.948,410.11,442.871,406.967,437.98z"/>
<path style="fill:#BEBDC2;" d="M406.967,437.98c-3.143-4.891-8.489-7.812-14.303-7.812H256V512h114.811l36.855-56.759l0.46-1.006
	C410.543,448.948,410.11,442.871,406.967,437.98z"/>
<path style="fill:#FC0023;" d="M409.317,81.756l-42.97-72.641H145.654l-42.971,72.641c-8.052,13.612-12.308,29.166-12.308,44.979
	v342.598h331.25V126.736C421.625,110.921,417.369,95.368,409.317,81.756z"/>
<path style="fill:#CC001C;" d="M409.317,81.756l-42.97-72.641H256v460.218h165.625V126.736
	C421.625,110.921,417.369,95.368,409.317,81.756z"/>
<rect x="105.37" style="fill:#DFDEE0;" width="301.25" height="30"/>
<path style="fill:#FC0023;" d="M335,121.666h86.469c-0.596-10.351-3.009-20.509-7.114-30H335V121.666z"/>
<rect x="256" style="fill:#BEBDC2;" width="150.62" height="30"/>
<path style="fill:#E2F4FC;" d="M319,469.333h-30v-22.339c0-52.102-15.676-102.284-45.333-145.123
	c-33.147-47.879-50.667-103.966-50.667-162.198v-22.339h30v22.339c0,52.102,15.676,102.284,45.333,145.122
	C301.48,332.674,319,388.762,319,446.994V469.333z"/>
<path style="fill:#6FC8F1;" d="M268.333,284.795c-4.427-6.394-8.535-12.956-12.333-19.659v56.394
	c21.647,38.206,33,81.139,33,125.463v22.339h30v-22.339C319,388.762,301.48,332.674,268.333,284.795z"/>
<path style="fill:#FF4F19;" d="M305,91.666H97.645c-4.104,9.492-6.518,19.649-7.114,30H305V91.666z"/>
<rect x="256" y="91.67" style="fill:#FC0023;" width="49" height="30"/>
<g>
</g>
<g>
</g>
<g>
</g>
<g>
</g>
<g>
</g>
<g>
</g>
<g>
</g>
<g>
</g>
<g>
</g>
<g>
</g>
<g>
</g>
<g>
</g>
<g>
</g>
<g>
</g>
<g>
</g>
</svg>
