<svg height="512" viewBox="0 0 256 256" width="512" xmlns="http://www.w3.org/2000/svg"><path d="m145.791 50.521a15.707 15.707 0 0 1 -2.091-7.821v-26.614h-31.4v26.614a15.707 15.707 0 0 1 -2.088 7.825l-14.252 24.783a31.163 31.163 0 0 0 -4.145 15.53v37.917a29.326 29.326 0 0 0 1.721 9.9l1.793 5a79.6 79.6 0 0 1 4.671 26.87 79.627 79.627 0 0 1 -3.682 23.931l-1.6 5.085a62.71 62.71 0 0 0 -2.9 18.849v19.946a9.663 9.663 0 0 0 9.66 9.664h53.044a9.663 9.663 0 0 0 9.663-9.663v-19.946a62.71 62.71 0 0 0 -2.9-18.849l-1.6-5.085a79.627 79.627 0 0 1 -3.685-23.931 79.6 79.6 0 0 1 4.671-26.867l1.793-5a29.326 29.326 0 0 0 1.721-9.9v-37.921a31.163 31.163 0 0 0 -4.145-15.53z" fill="#e0ebfc"/><path d="m164.185 238.337v-19.946a62.71 62.71 0 0 0 -2.9-18.849l-1.6-5.085a79.629 79.629 0 0 1 -3.685-23.932 79.6 79.6 0 0 1 4.671-26.867l1.793-5a29.326 29.326 0 0 0 1.721-9.9v-37.92a31.163 31.163 0 0 0 -4.145-15.53l-9-15.656h-46.08l-9 15.656a31.163 31.163 0 0 0 -4.145 15.53v37.917a29.326 29.326 0 0 0 1.721 9.9l1.793 5a79.6 79.6 0 0 1 4.671 26.87 79.629 79.629 0 0 1 -3.682 23.932l-1.6 5.085a62.71 62.71 0 0 0 -2.9 18.849v19.946a9.663 9.663 0 0 0 9.66 9.663h53.044a9.663 9.663 0 0 0 9.663-9.663z" fill="#4671c6"/><path d="m91.815 90.838v37.917a29.291 29.291 0 0 0 .846 6.912h70.678a29.291 29.291 0 0 0 .846-6.912v-37.917a31.168 31.168 0 0 0 -.37-4.695h-71.63a31.168 31.168 0 0 0 -.37 4.695z" fill="#f9a7a7"/><path d="m155.349 110.177a35.379 35.379 0 0 0 -22.778-11.787l-5.371-.579a23.374 23.374 0 0 1 -12.794-5.55l-7.1-6.117h-15.121c-.13.851-.22 1.708-.283 2.569l14.673 12.64a35.312 35.312 0 0 0 19.338 8.388l5.37.58a23.407 23.407 0 0 1 15.071 7.8l15.491 17.548h1.494a29.343 29.343 0 0 0 .846-6.912v-8.569z" fill="#e0ebfc"/><path d="m154.521 250h-53.042a11.677 11.677 0 0 1 -11.664-11.663v-19.945a64.625 64.625 0 0 1 2.993-19.452l1.6-5.085a77.6 77.6 0 0 0 -.964-49.522l-1.793-5a31.27 31.27 0 0 1 -1.838-10.575v-37.92a33.214 33.214 0 0 1 4.411-16.526l14.249-24.788a13.719 13.719 0 0 0 1.827-6.824v-26.614a2 2 0 0 1 2-2h31.4a2 2 0 0 1 2 2v26.614a13.726 13.726 0 0 0 1.823 6.83l14.249 24.787a33.214 33.214 0 0 1 4.411 16.526v37.917a31.27 31.27 0 0 1 -1.838 10.575l-1.793 5a77.6 77.6 0 0 0 -.964 49.522l1.6 5.085a64.625 64.625 0 0 1 2.993 19.452v19.945a11.677 11.677 0 0 1 -11.66 11.661zm-40.221-231.914v24.614a17.741 17.741 0 0 1 -2.355 8.823l-14.251 24.783a29.2 29.2 0 0 0 -3.879 14.532v37.917a27.239 27.239 0 0 0 1.6 9.225l1.793 5a81.61 81.61 0 0 1 1.013 52.076l-1.6 5.085a60.653 60.653 0 0 0 -2.807 18.248v19.945a7.672 7.672 0 0 0 7.665 7.666h53.042a7.672 7.672 0 0 0 7.664-7.663v-19.945a60.653 60.653 0 0 0 -2.807-18.248l-1.6-5.085a81.61 81.61 0 0 1 1.013-52.076l1.793-5a27.239 27.239 0 0 0 1.6-9.225v-37.92a29.2 29.2 0 0 0 -3.879-14.532l-14.248-24.787a17.741 17.741 0 0 1 -2.357-8.819v-24.614z" fill="#3762cc"/><path d="m154.521 250h-53.042a11.677 11.677 0 0 1 -11.664-11.663v-19.945a64.625 64.625 0 0 1 2.993-19.452l1.6-5.085a77.6 77.6 0 0 0 -.964-49.522l-1.793-5a31.27 31.27 0 0 1 -1.838-10.575v-37.92a33.214 33.214 0 0 1 4.411-16.526l14.249-24.788a13.719 13.719 0 0 0 1.827-6.824v-26.614a2 2 0 0 1 2-2h31.4a2 2 0 0 1 2 2v26.614a13.726 13.726 0 0 0 1.823 6.83l14.249 24.787a33.214 33.214 0 0 1 4.411 16.526v37.917a31.27 31.27 0 0 1 -1.838 10.575l-1.793 5a77.6 77.6 0 0 0 -.964 49.522l1.6 5.085a64.625 64.625 0 0 1 2.993 19.452v19.945a11.677 11.677 0 0 1 -11.66 11.661zm-40.221-231.914v24.614a17.741 17.741 0 0 1 -2.355 8.823l-14.251 24.783a29.2 29.2 0 0 0 -3.879 14.532v37.917a27.239 27.239 0 0 0 1.6 9.225l1.793 5a81.61 81.61 0 0 1 1.013 52.076l-1.6 5.085a60.653 60.653 0 0 0 -2.807 18.248v19.945a7.672 7.672 0 0 0 7.665 7.666h53.042a7.672 7.672 0 0 0 7.664-7.663v-19.945a60.653 60.653 0 0 0 -2.807-18.248l-1.6-5.085a81.61 81.61 0 0 1 1.013-52.076l1.793-5a27.239 27.239 0 0 0 1.6-9.225v-37.92a29.2 29.2 0 0 0 -3.879-14.532l-14.248-24.787a17.741 17.741 0 0 1 -2.357-8.819v-24.614z" fill="#3762cc"/><rect fill="#4671c6" height="18.521" rx="3" width="42" x="107.052" y="8"/><path d="m146.052 28.521h-36a5.006 5.006 0 0 1 -5-5v-12.521a5.006 5.006 0 0 1 5-5h36a5.006 5.006 0 0 1 5 5v12.521a5.006 5.006 0 0 1 -5 5zm-36-18.521a1 1 0 0 0 -1 1v12.521a1 1 0 0 0 1 1h36a1 1 0 0 0 1-1v-12.521a1 1 0 0 0 -1-1z" fill="#3762cc"/><g fill="#a4c9ff"><circle cx="129.551" cy="221.5" r="6.167"/><circle cx="123.384" cy="204.667" r="4.667"/><circle cx="131.134" cy="188.429" r="6.167"/><circle cx="124.967" cy="171.596" r="4.667"/></g></svg>