<?xml version="1.0" encoding="iso-8859-1"?>
<!-- Generator: Adobe Illustrator 19.0.0, SVG Export Plug-In . SVG Version: 6.00 Build 0)  -->
<svg version="1.1" id="Capa_1" xmlns="http://www.w3.org/2000/svg" xmlns:xlink="http://www.w3.org/1999/xlink" x="0px" y="0px"
	 viewBox="0 0 446.4 446.4" style="enable-background:new 0 0 446.4 446.4;" xml:space="preserve">
<polygon style="fill:#FFFFFF;" points="136.366,106.4 137.166,80.8 308.366,81.6 308.366,106.4 300.366,106.4 "/>
<polygon style="fill:#F7EEBA;" points="275.566,106.4 275.566,80.8 308.366,81.6 308.366,106.4 306.766,106.4 "/>
<g>
	<polygon style="fill:#FFFFFF;" points="136.366,437.6 137.166,412.8 308.366,412.8 308.366,437.6 300.366,438.4 	"/>
	<path style="fill:#FFFFFF;" d="M145.166,429.6h155.2l0,0v-8.8h-155.2V429.6z"/>
	<path style="fill:#FFFFFF;" d="M199.566,80.8l-2.4-1.6c-2.4-1.6-4-4-4-7.2l-8-55.2l0.8-9.6h66.4l1.6,0.8c2.4,2.4,4,4.8,4,7.2v1.6
		l-8,55.2v0.8c0,2.4-1.6,5.6-3.2,7.2l-2.4,1.6L199.566,80.8z"/>
</g>
<path style="fill:#F7EEBA;" d="M257.966,15.2c-0.8-2.4-1.6-4.8-4-6.4l-1.6-0.8h-24.8l1.6,0.8c2.4,1.6,3.2,4,4,6.4v1.6l-8.8,54.4V72
	c0,2.4-1.6,5.6-3.2,7.2l-2.4,1.6h24.8l2.4-1.6c2.4-1.6,3.2-4,3.2-7.2v-0.8l8-54.4L257.966,15.2z"/>
<g>
	<path style="fill:#F4A23F;" d="M121.966,412V293.6h46.4l2.4,3.2c20.8,29.6,61.6,36.8,91.2,16c6.4-4.8,12-9.6,16-16l2.4-3.2h46.4
		V412h-8H121.966z"/>
	<path style="fill:#F4A23F;" d="M280.366,225.6l-2.4-3.2c-20.8-29.6-61.6-36.8-91.2-16c-6.4,4.8-12,9.6-16,16l-2.4,3.2h-45.6V106.4
		h204v118.4h-46.4V225.6z"/>
</g>
<g>
	<polygon style="fill:#E28539;" points="282.766,293.6 282.766,412 276.366,412 317.966,412.8 326.766,412 326.766,293.6 	"/>
	<rect x="282.766" y="107.2" style="fill:#E28539;" width="44" height="118.4"/>
</g>
<path style="fill:#FBCF4C;" d="M224.366,325.6c-23.2,0-44-12-56-31.2h-46.4v-68.8h46.4c19.2-31.2,59.2-40.8,90.4-21.6
	c8.8,5.6,16,12.8,21.6,21.6h46.4v68.8h-46.4C268.366,313.6,247.566,325.6,224.366,325.6z"/>
<rect x="282.766" y="225.6" style="fill:#EDB248;" width="44" height="68.8"/>
<g>
	<path style="fill:#4A2328;" d="M317.966,98.4h-2.4l0,0v-9.6c0-8.8-7.2-16-16-16h-42.4c0,0,0,0,0-0.8l8-53.6v-0.8
		c0-8.8-7.2-16.8-16-17.6h-56c-8.8,0.8-16,8-16,17.6l8,55.2c0,0,0,0,0,0.8h-40.8c-8.8,0-16,7.2-16,16v8.8c0,0,0,0,0,0.8
		c-8.8,0.8-15.2,7.2-15.2,16v289.6c0,8.8,6.4,15.2,15.2,16c0,0,0,0,0,0.8v8.8c0,8.8,7.2,16,16,16h154.4c8.8,0,16-7.2,16-16v-8.8l0,0
		h2.4c8.8,0,16-7.2,16-16V115.2C333.966,106.4,327.566,99.2,317.966,98.4L317.966,98.4z M193.966,16h56v0.8l-8,53.6v0.8
		c0,0.8,0,0.8,0,0.8h-39.2c0,0-0.8-0.8,0-0.8L193.966,16C193.966,16.8,193.966,16.8,193.966,16z M145.966,88.8h155.2v8.8l0,0h-155.2
		V88.8z M300.366,429.6L300.366,429.6h-154.4V420h155.2v9.6H300.366z M318.766,404L318.766,404h-188V301.6h33.6
		c23.2,33.6,68.8,41.6,102.4,18.4c7.2-4.8,13.6-11.2,18.4-18.4h33.6V404z M318.766,285.6h-43.2l-2.4,4c-16.8,27.2-52,36-79.2,19.2
		c-8-4.8-14.4-11.2-19.2-19.2l-2.4-4h-42.4v-52.8h42.4l2.4-4c16.8-27.2,52-36,79.2-19.2c8,4.8,14.4,11.2,19.2,19.2l2.4,4h42.4
		L318.766,285.6z M318.766,217.6h-34.4c-23.2-33.6-68.8-41.6-102.4-18.4c-7.2,4.8-13.6,11.2-18.4,18.4h-33.6V114.4h188
		L318.766,217.6z"/>
	<circle style="fill:#4A2328;" cx="221.966" cy="44.8" r="12"/>
</g>
<g>
</g>
<g>
</g>
<g>
</g>
<g>
</g>
<g>
</g>
<g>
</g>
<g>
</g>
<g>
</g>
<g>
</g>
<g>
</g>
<g>
</g>
<g>
</g>
<g>
</g>
<g>
</g>
<g>
</g>
</svg>
